<?xml version="1.0" encoding="UTF-8"?><svg id="Layer_2" xmlns="http://www.w3.org/2000/svg" viewBox="0 0 375.06 151.71"><defs><style>.cls-1{font-size:41.82px;}.cls-1,.cls-2{fill:#e50505;}.cls-1,.cls-3{font-family:Montserrat-ExtraBold, Montserrat;}.cls-4{letter-spacing:0em;}.cls-5{letter-spacing:0em;}.cls-6{letter-spacing:0em;}.cls-7{letter-spacing:-.05em;}.cls-3{fill:#414042;font-size:114.26px;}</style></defs><g id="OBJECTS"><g><path class="cls-2" d="M110.36,69.9h0v.03h-33.19c-3.64,0-6.59-2.95-6.59-6.59v-10.86c0-4.1-3.1-7.68-7.19-7.95-4.49-.29-8.21,3.26-8.21,7.69v17.74l15.41,4.3,32.74,9.12c4.15,1.16,7.03,4.94,7.03,9.25v32.47H28.06c-6.99,0-12.65-5.66-12.65-12.65v-7.15c0-3.1-2.51-5.6-5.6-5.6H0v15.21c0,14.14,11.46,25.6,25.6,25.6H114.36c6.3,0,11.4-5.1,11.4-11.4v-43.8c0-8.51-6.9-15.4-15.4-15.4Z"/><path class="cls-2" d="M100.16,14.78H11.4C5.1,14.78,0,19.88,0,26.18v43.8c0,8.51,6.9,15.4,15.4,15.4h0v-.03H48.59c3.64,0,6.59,2.95,6.59,6.59v10.86c0,4.1,3.1,7.68,7.19,7.95,4.49,.29,8.21-3.26,8.21-7.69v-17.74l-48.16-13.42c-4.15-1.16-7.03-4.94-7.03-9.25V30.18H97.71c6.99,0,12.65,5.66,12.65,12.65v7.15c0,3.1,2.51,5.6,5.6,5.6h9.8v-15.21c0-14.14-11.46-25.6-25.6-25.6Z"/></g><text class="cls-3" transform="translate(139.8 97.12)"><tspan x="0" y="0">S</tspan><tspan class="cls-7" x="73.93" y="0">K</tspan><tspan x="153.79" y="0">Y</tspan></text><text class="cls-1" transform="translate(145.64 140.5)"><tspan x="0" y="0">IN</tspan><tspan class="cls-5" x="47.88" y="0">F</tspan><tspan class="cls-6" x="74.47" y="0">O</tspan><tspan class="cls-4" x="109.43" y="0">TECH</tspan></text></g></svg>