<?xml version="1.0" encoding="UTF-8"?><svg id="Layer_2" xmlns="http://www.w3.org/2000/svg" viewBox="0 0 375.06 126.31"><defs><style>.cls-1{fill:#e50505;}.cls-2{fill:#414042;}</style></defs><g id="OBJECTS"><g><path class="cls-1" d="M110.36,55.12h0v.03h-33.19c-3.64,0-6.59-2.95-6.59-6.59v-10.86c0-4.1-3.1-7.68-7.19-7.95-4.49-.29-8.21,3.26-8.21,7.69v17.74l15.41,4.3,32.74,9.12c4.15,1.16,7.03,4.94,7.03,9.25v32.47H28.06c-6.99,0-12.65-5.66-12.65-12.65v-7.15c0-3.1-2.51-5.6-5.6-5.6H0v15.21c0,14.14,11.46,25.6,25.6,25.6H114.36c6.3,0,11.4-5.1,11.4-11.4v-43.8c0-8.51-6.9-15.4-15.4-15.4Z"/><path class="cls-1" d="M100.16,0H11.4C5.1,0,0,5.1,0,11.4V55.2c0,8.51,6.9,15.4,15.4,15.4h0v-.03H48.59c3.64,0,6.59,2.95,6.59,6.59v10.86c0,4.1,3.1,7.68,7.19,7.95,4.49,.29,8.21-3.26,8.21-7.69v-17.74l-48.16-13.42c-4.15-1.16-7.03-4.94-7.03-9.25V15.4H97.71c6.99,0,12.65,5.66,12.65,12.65v7.15c0,3.1,2.51,5.6,5.6,5.6h9.8v-15.21c0-14.14-11.46-25.6-25.6-25.6Z"/></g><g><path class="cls-2" d="M142.2,75.15l7.43-16.68c7.08,4.68,17.14,7.88,26.39,7.88s13.03-2.63,13.03-6.51c0-12.68-45.47-3.43-45.47-33.13,0-14.28,11.65-25.94,35.42-25.94,10.4,0,21.14,2.4,29.02,6.97l-6.97,16.8c-7.66-4.11-15.2-6.17-22.17-6.17-9.48,0-12.91,3.2-12.91,7.2,0,12.23,45.36,3.08,45.36,32.56,0,13.94-11.65,25.82-35.42,25.82-13.14,0-26.17-3.54-33.71-8.8Z"/><path class="cls-2" d="M252.58,53.32l-8.46,9.03v20h-22.39V2.36h22.39V35.61L275.08,2.36h24.91l-32.68,35.42,34.39,44.56h-26.28l-22.85-29.02Z"/><path class="cls-2" d="M344.44,53.67v28.68h-22.62v-29.02L291.31,2.36h23.88l18.97,31.76,18.97-31.76h21.94l-30.62,51.3Z"/></g><g><path class="cls-1" d="M148.57,96.46h8.28v29.27h-8.28v-29.27Z"/><path class="cls-1" d="M190.59,96.46v29.27h-6.81l-12.92-15.59v15.59h-8.11v-29.27h6.81l12.92,15.59v-15.59h8.11Z"/><path class="cls-1" d="M204.73,102.86v6.44h12.92v6.4h-12.92v10.03h-8.28v-29.27h22.95v6.4h-14.67Z"/><path class="cls-1" d="M221.54,111.09c0-8.78,6.9-15.22,16.26-15.22s16.26,6.44,16.26,15.22-6.9,15.22-16.26,15.22-16.26-6.44-16.26-15.22Zm24.17,0c0-5.06-3.47-8.36-7.9-8.36s-7.9,3.3-7.9,8.36,3.47,8.36,7.9,8.36,7.9-3.3,7.9-8.36Z"/><path class="cls-1" d="M264.23,103.02h-8.99v-6.56h26.21v6.56h-8.95v22.7h-8.28v-22.7Z"/><path class="cls-1" d="M308.06,119.33v6.4h-23.5v-29.27h22.95v6.4h-14.76v4.93h13v6.19h-13v5.35h15.3Z"/><path class="cls-1" d="M311.15,111.09c0-8.91,6.81-15.22,16.1-15.22,5.39,0,9.74,1.96,12.58,5.52l-5.27,4.77c-1.84-2.22-4.1-3.43-6.9-3.43-4.81,0-8.15,3.34-8.15,8.36s3.34,8.36,8.15,8.36c2.8,0,5.06-1.21,6.9-3.43l5.27,4.77c-2.84,3.55-7.19,5.52-12.58,5.52-9.28,0-16.1-6.31-16.1-15.22Z"/><path class="cls-1" d="M371.36,96.46v29.27h-8.28v-11.41h-11.29v11.41h-8.28v-29.27h8.28v11h11.29v-11h8.28Z"/></g></g></svg>